<mxfile host="app.diagrams.net" agent="Mozilla/5.0 (Windows NT 10.0; Win64; x64) AppleWebKit/537.36 (KHTML, like Gecko) Chrome/137.0.0.0 Safari/537.36" version="27.1.4">
  <diagram name="Trang-1" id="sINW8HCOo4WBnpV6FYqD">
    <mxGraphModel dx="786" dy="498" grid="1" gridSize="10" guides="1" tooltips="1" connect="1" arrows="1" fold="1" page="1" pageScale="1" pageWidth="827" pageHeight="1169" math="0" shadow="0">
      <root>
        <mxCell id="0" />
        <mxCell id="1" parent="0" />
        <mxCell id="o_uB0EJ4oCC6YQPcd6UO-1" value="" style="shape=internalStorage;whiteSpace=wrap;html=1;backgroundOutline=1;dx=290;dy=30;" vertex="1" parent="1">
          <mxGeometry x="160" y="20" width="610" height="540" as="geometry" />
        </mxCell>
        <mxCell id="o_uB0EJ4oCC6YQPcd6UO-2" value="người dùng" style="text;html=1;align=center;verticalAlign=middle;whiteSpace=wrap;rounded=0;" vertex="1" parent="1">
          <mxGeometry x="210" y="20" width="80" height="30" as="geometry" />
        </mxCell>
        <mxCell id="o_uB0EJ4oCC6YQPcd6UO-3" value="hệ thống" style="text;html=1;align=center;verticalAlign=middle;whiteSpace=wrap;rounded=0;" vertex="1" parent="1">
          <mxGeometry x="570" y="20" width="60" height="30" as="geometry" />
        </mxCell>
        <mxCell id="o_uB0EJ4oCC6YQPcd6UO-4" value="" style="ellipse;html=1;shape=startState;fillColor=#000000;strokeColor=#ff0000;" vertex="1" parent="1">
          <mxGeometry x="240" y="70" width="30" height="30" as="geometry" />
        </mxCell>
        <mxCell id="o_uB0EJ4oCC6YQPcd6UO-8" value="Màn hình đăng nhập" style="html=1;whiteSpace=wrap;" vertex="1" parent="1">
          <mxGeometry x="530" y="60" width="140" height="50" as="geometry" />
        </mxCell>
        <mxCell id="o_uB0EJ4oCC6YQPcd6UO-9" value="" style="html=1;verticalAlign=bottom;endArrow=block;curved=0;rounded=0;entryX=0;entryY=0.5;entryDx=0;entryDy=0;exitX=1;exitY=0.5;exitDx=0;exitDy=0;" edge="1" parent="1" source="o_uB0EJ4oCC6YQPcd6UO-4" target="o_uB0EJ4oCC6YQPcd6UO-8">
          <mxGeometry width="80" relative="1" as="geometry">
            <mxPoint x="370" y="280" as="sourcePoint" />
            <mxPoint x="450" y="280" as="targetPoint" />
          </mxGeometry>
        </mxCell>
      </root>
    </mxGraphModel>
  </diagram>
</mxfile>
